<?xml version="1.0" encoding="UTF-8" standalone="no"?>
<!-- Created with Inkscape (http://www.inkscape.org/) -->

<svg
   width="88.669052mm"
   height="27.686163mm"
   viewBox="0 0 88.669052 27.686163"
   version="1.1"
   id="svg1"
   inkscape:version="1.4.2 (f4327f4, 2025-05-13)"
   sodipodi:docname="logo.svg"
   xmlns:inkscape="http://www.inkscape.org/namespaces/inkscape"
   xmlns:sodipodi="http://sodipodi.sourceforge.net/DTD/sodipodi-0.dtd"
   xmlns="http://www.w3.org/2000/svg"
   xmlns:svg="http://www.w3.org/2000/svg">
  <sodipodi:namedview
     id="namedview1"
     pagecolor="#ffffff"
     bordercolor="#000000"
     borderopacity="0.25"
     inkscape:showpageshadow="2"
     inkscape:pageopacity="0.0"
     inkscape:pagecheckerboard="0"
     inkscape:deskcolor="#d1d1d1"
     inkscape:document-units="mm"
     inkscape:zoom="1.4142136"
     inkscape:cx="61.51829"
     inkscape:cy="-155.91705"
     inkscape:window-width="2560"
     inkscape:window-height="1369"
     inkscape:window-x="-8"
     inkscape:window-y="-8"
     inkscape:window-maximized="1"
     inkscape:current-layer="g1" />
  <defs
     id="defs1">
    <rect
       x="225.08107"
       y="405.91544"
       width="14.428274"
       height="16.352043"
       id="rect9" />
    <rect
       x="216.4241"
       y="427.0769"
       width="12.504504"
       height="25.009008"
       id="rect8" />
    <inkscape:perspective
       sodipodi:type="inkscape:persp3d"
       inkscape:vp_x="0.01604965 : -120.85826 : 1"
       inkscape:vp_y="0 : 1000 : 0"
       inkscape:vp_z="210.01605 : -120.85826 : 1"
       inkscape:persp3d-origin="105.01605 : -170.35826 : 1"
       id="perspective2" />
  </defs>
  <g
     inkscape:label="Warstwa 1"
     inkscape:groupmode="layer"
     id="layer1"
     transform="translate(-34.127874,-102.68658)">
    <text
       xml:space="preserve"
       transform="scale(0.26458333)"
       id="text8"
       style="text-align:start;writing-mode:lr-tb;direction:ltr;white-space:pre;shape-inside:url(#rect8);display:inline;fill:#3f3f3f;fill-opacity:1;stroke:#323232;stroke-opacity:1" />
    <text
       xml:space="preserve"
       transform="scale(0.26458333)"
       id="text9"
       style="text-align:start;writing-mode:lr-tb;direction:ltr;white-space:pre;shape-inside:url(#rect9);display:inline;fill:#3f3f3f;fill-opacity:1;stroke:#323232;stroke-opacity:1" />
    <text
       xml:space="preserve"
       style="font-size:3.175px;text-align:start;letter-spacing:2.03465px;writing-mode:lr-tb;direction:ltr;text-anchor:start;fill:#000000;fill-opacity:1;stroke:none;stroke-width:0.264583;stroke-opacity:1"
       x="67.632553"
       y="117.21105"
       id="text23"><tspan
         sodipodi:role="line"
         id="tspan23"
         style="fill:#000000;fill-opacity:1;stroke-width:0.264583"
         x="67.632553"
         y="117.21105" /></text>
    <g
       id="g3">
      <g
         id="g1">
        <g
           id="g26">
          <g
             id="g2"
             style="fill:#3f3f3f;fill-opacity:1;stroke:#323232;stroke-opacity:1">
            <path
               d="m 47.981035,108.69116 2.271924,-1.8877 v 22.18487 l -2.271924,0.88441 z"
               style="fill:#3f3f3f;fill-opacity:1;fill-rule:evenodd;stroke:#323232;stroke-linejoin:round;stroke-opacity:1"
               id="path27" />
            <path
               d="m 34.627874,105.40689 v 22.92713 l 13.353161,1.53872 v -21.18158 z"
               style="fill:#3f3f3f;fill-opacity:1;fill-rule:evenodd;stroke:#323232;stroke-linejoin:round;stroke-opacity:1"
               id="path28" />
            <path
               d="m 34.627874,105.40689 1.781492,-2.22032 13.843593,3.61689 -2.271924,1.8877 z"
               style="fill:#3f3f3f;fill-opacity:1;fill-rule:evenodd;stroke:#323232;stroke-linejoin:round;stroke-opacity:1"
               id="path29" />
            <path
               d="m 34.627874,128.33402 1.781492,-1.04024 13.843593,1.69455 -2.271924,0.88441 z"
               style="fill:#3f3f3f;fill-opacity:1;fill-rule:evenodd;stroke:#323232;stroke-linejoin:round;stroke-opacity:1"
               id="path30" />
            <path
               d="m 36.409366,103.18657 v 24.10721 l 13.843593,1.69455 v -22.18487 z"
               style="fill:#3f3f3f;fill-opacity:1;fill-rule:evenodd;stroke:#323232;stroke-linejoin:round;stroke-opacity:1"
               id="path31" />
            <path
               d="m 34.627874,105.40689 1.781492,-2.22032 v 24.10721 l -1.781492,1.04024 z"
               style="fill:#3f3f3f;fill-opacity:1;fill-rule:evenodd;stroke:#323232;stroke-linejoin:round;stroke-opacity:1"
               id="path32" />
          </g>
          <path
             d="m 62.910974,113.25193 h -1.520837 v -2.30839 h 1.520837 v 0.27286 h -1.213879 v 0.63252 h 1.213879 v 0.27285 h -1.213879 v 0.85731 h 1.213879 z m 2.45029,-1.15187 q 0,0.31471 -0.137976,0.57051 -0.136426,0.2558 -0.364319,0.39688 -0.15813,0.0977 -0.353467,0.14107 -0.193787,0.0434 -0.511597,0.0434 h -0.58291 v -2.30839 h 0.576709 q 0.337964,0 0.536402,0.0496 0.199987,0.0481 0.337963,0.13333 0.235645,0.14728 0.36742,0.39222 0.131775,0.24495 0.131775,0.58136 z m -0.320911,-0.005 q 0,-0.2713 -0.09457,-0.45733 -0.09457,-0.18604 -0.282153,-0.29301 -0.136426,-0.0775 -0.289905,-0.10697 -0.153479,-0.031 -0.367419,-0.031 h -0.288355 v 1.78129 h 0.288355 q 0.221692,0 0.386023,-0.0326 0.165881,-0.0326 0.303857,-0.12092 0.172083,-0.11007 0.257349,-0.2899 0.08682,-0.17984 0.08682,-0.44959 z m 2.568112,0.22945 q 0,0.25114 -0.05581,0.43873 -0.05426,0.18603 -0.179834,0.31006 -0.119373,0.11782 -0.279053,0.17208 -0.15968,0.0543 -0.37207,0.0543 -0.217041,0 -0.378272,-0.0574 -0.16123,-0.0574 -0.271301,-0.16898 -0.125574,-0.12713 -0.181384,-0.30696 -0.05426,-0.17984 -0.05426,-0.44183 v -1.38132 h 0.306958 v 1.39682 q 0,0.18758 0.02481,0.2961 0.02635,0.10852 0.08682,0.19689 0.06821,0.10077 0.184484,0.15193 0.117823,0.0512 0.282154,0.0512 0.165881,0 0.282153,-0.0496 0.116272,-0.0512 0.186035,-0.15348 0.06046,-0.0884 0.08527,-0.20154 0.02635,-0.11472 0.02635,-0.2837 v -1.40457 h 0.306958 z"
             id="text7"
             style="font-size:3.175px;letter-spacing:0.0132292px;white-space:pre;inline-size:8.73686;fill:#3f3f3f;stroke:#6a65e7;stroke-width:0.264583"
             transform="matrix(1.6843831,0,0,6.0460244,-64.873789,-561.21621)"
             aria-label="EDU" />
          <path
             style="fill:#ffffff;fill-opacity:1;stroke:none;stroke-width:0.170039;stroke-opacity:1"
             d="m 132.80033,440.1542 v -41.28555 l 1.20343,-1.50912 c 0.66189,-0.83002 1.27403,-1.58181 1.36031,-1.67066 0.0958,-0.0987 0.15688,16.25635 0.15688,42.02397 v 42.18551 l -1.36031,0.7707 -1.36031,0.7707 z"
             id="path9"
             sodipodi:nodetypes="ccssscccc"
             transform="scale(0.26458333)" />
          <path
             style="fill:#ffffff;fill-opacity:1;stroke:none;stroke-width:0.0449895;stroke-opacity:1"
             d="m 35.13584,114.84492 v -10.92347 l 0.318407,-0.39929 c 0.175125,-0.21961 0.337087,-0.41852 0.359915,-0.44202 0.02535,-0.0261 0.04151,4.30116 0.04151,11.11884 v 11.16158 l -0.359915,0.20391 -0.359915,0.20392 z"
             id="path9-1"
             sodipodi:nodetypes="ccssscccc" />
          <path
             style="fill:#ffffff;fill-opacity:1;stroke:none;stroke-width:0.170039;stroke-opacity:1"
             d="m 166.04292,486.98508 c -7.48171,-0.87217 -17.10657,-1.98966 -21.38859,-2.48332 l -7.78549,-0.89755 0.60832,-0.31209 c 0.60472,-0.31024 0.65842,-0.30592 9.06078,0.72857 4.64885,0.57236 10.28888,1.2643 12.53339,1.53764 2.24451,0.27334 6.22342,0.75974 8.84202,1.08089 2.6186,0.32114 6.8061,0.83441 9.30555,1.14059 2.49946,0.30618 4.45065,0.61629 4.33599,0.68913 -0.38949,0.24744 -1.89923,0.10302 -15.51197,-1.48386 z"
             id="path10"
             sodipodi:nodetypes="sscsssssss"
             transform="scale(0.26458333)" />
          <path
             id="rect10"
             style="fill:#ffffff;stroke:#6a65e7;stroke-width:0.262448"
             d="M 35.248158,126.88602 H 35.7508 v 0.93004 h -0.502642 z" />
          <path
             id="rect10-8"
             style="fill:#ffffff;stroke:#6a65e7;stroke-width:0.137569"
             d="m 35.185795,127.85076 h 1.46545 v 0.0877 h -1.46545 z" />
          <path
             style="fill:#ffffff;fill-opacity:1;stroke:none;stroke-width:0.0212549;stroke-opacity:1"
             d="m 171.09095,487.64793 c -0.30526,-0.0382 -16.23604,-1.88976 -22.37073,-2.60008 -2.62445,-0.30387 -6.10599,-0.70828 -7.73677,-0.89868 l -2.96505,-0.34617 -2.63742,-0.006 -2.63743,-0.006 -0.0141,-1.67334 c -0.008,-0.92034 -0.0141,-5.13337 -0.0141,-9.36228 l -2e-5,-7.68895 h 0.085 0.085 v 7.00348 7.00347 h 1.27529 1.27529 v -7.00347 -7.00348 h 0.085 0.085 v 8.9483 8.94829 h 1.58349 c 1.56424,0 1.58348,5.1e-4 1.58348,0.0421 0,0.0509 0.0272,0.0575 0.3082,0.0747 0.75413,0.0462 1.51499,0.1364 11.84958,1.40438 6.86784,0.84262 12.77075,1.56513 18.31106,2.24124 1.14564,0.1398 2.11406,0.25952 2.15205,0.26603 0.0627,0.0108 0.0691,0.0188 0.0691,0.0871 0,0.0751 -2.1e-4,0.0753 -0.0797,0.0626 -0.0438,-0.007 -0.47185,-0.0607 -0.95115,-0.11933 -0.4793,-0.0586 -3.25306,-0.39778 -6.16391,-0.75363 -2.91085,-0.35586 -8.87921,-1.0869 -13.26303,-1.62454 -10.12629,-1.24191 -10.67662,-1.30761 -11.66891,-1.39302 -0.21042,-0.0181 -0.42324,-0.0365 -0.47292,-0.0408 l -0.0903,-0.008 v 0.27371 c 0,0.15053 0.004,0.2737 0.009,0.2737 0.038,0 14.00256,1.61766 23.38246,2.70864 8.26854,0.96172 9.24383,1.07472 9.27533,1.07472 0.013,0 0.0237,0.0335 0.0237,0.0744 0,0.0877 0.004,0.0873 -0.37196,0.0403 z m -36.4627,-6.32112 v -1.2753 h -0.45698 -0.45698 v 1.2753 1.27529 h 0.45698 0.45698 z"
             id="path11"
             sodipodi:nodetypes="cssccccscccccccccccccssssssssssssccsssssccccccccccc"
             transform="scale(0.26458333)" />
          <path
             style="fill:#ffffff;fill-opacity:1;stroke:#6a65e7;stroke-width:0.00390625;stroke-opacity:1"
             d="m 133.70703,481.32617 v -1.28515 h 0.46484 0.46485 v 1.28515 1.28516 h -0.46485 -0.46484 z m 0.91309,9.8e-4 9.9e-4,-1.2627 h -0.44923 -0.44922 v 1.26369 1.26369 l 0.44824,-9.9e-4 0.44824,-0.001 z"
             id="path12"
             sodipodi:nodetypes="cccccccccccccccccc"
             transform="scale(0.26458333)" />
          <path
             style="fill:#ffffff;fill-opacity:1;stroke:#6a65e7;stroke-width:0.00390625;stroke-opacity:1"
             d="m 133.71094,481.32617 v -1.28125 h 0.46093 0.46094 v 1.28125 1.28125 h -0.46094 -0.46093 z m 0.90885,1.26433 c 0.002,-0.002 0.004,-0.57177 0.004,-1.26661 l 10e-4,-1.26334 h -0.45327 -0.45327 v 1.26781 1.26782 l 0.44889,-10e-4 c 0.2469,-6.6e-4 0.45036,-0.003 0.45215,-0.004 z"
             id="path13"
             sodipodi:nodetypes="ccccccccccccccccccc"
             transform="scale(0.26458333)" />
          <path
             id="rect23"
             style="fill:#ffffff;stroke-width:0.264583"
             d="m 35.308437,126.96899 h 0.373105 v 0.73483 h -0.373105 z" />
          <path
             style="font-style:italic;font-weight:bold;font-size:16.0632px;-inkscape-font-specification:'sans-serif Bold Italic';letter-spacing:4.63222px;word-spacing:0px;stroke-width:0.602367"
             d="m 96.895287,72.90803 q 0,1.98437 -1.043167,3.662849 -1.043167,1.678479 -2.674586,2.572622 -0.988263,0.533348 -2.062803,0.713746 Q 90.04019,80.0298 88.542109,80.0298 h -4.227571 l 2.698116,-11.678762 h 3.780499 q 1.670636,0 2.690272,0.258831 1.019637,0.258831 1.647106,0.698059 0.862769,0.596095 1.309841,1.490238 0.454915,0.8863 0.454915,2.109864 z m -3.153031,0.274518 q 0,-0.800023 -0.298048,-1.372588 -0.298047,-0.580409 -0.909829,-0.93336 -0.282361,-0.156867 -0.580409,-0.235301 -0.290204,-0.08628 -0.666685,-0.125494 -0.360795,-0.03137 -0.823553,-0.03137 -0.462758,0 -0.807866,0 h -0.101964 l -1.725539,7.404131 h 0.274518 q 0.454915,0 0.972576,0 0.517662,0 0.83924,-0.03922 0.415698,-0.03922 0.745119,-0.125494 0.337264,-0.08628 0.737276,-0.290205 1.129443,-0.580408 1.733382,-1.733382 0.611782,-1.152974 0.611782,-2.517718 z M 109.70029,80.0298 h -8.27475 l 0.40786,-1.733382 5.7884,-5.09034 h -4.4315 l 0.46276,-1.98437 h 8.00022 l -0.40001,1.702009 -5.71781,5.082497 h 4.63543 z m 11.52653,-8.808092 -2.03927,8.808092 h -2.8393 l 2.03927,-8.808092 z m 0.86277,-3.396175 -0.49413,2.141237 h -2.99617 l 0.49414,-2.141237 z m 11.51085,6.666856 q 0.0235,-0.141181 0.0314,-0.258831 0.0157,-0.117651 0.0157,-0.243144 0,-0.619626 -0.38433,-0.949047 -0.38432,-0.329421 -1.10591,-0.329421 -0.87062,0 -1.46671,0.470602 -0.58825,0.470601 -0.89414,1.309841 z m -2.15693,5.772712 q -2.25104,0 -3.47461,-0.996106 -1.22356,-0.996107 -1.22356,-2.75302 0,-1.200034 0.40001,-2.203984 0.40001,-1.00395 1.15297,-1.764755 0.72159,-0.737276 1.80398,-1.168661 1.08238,-0.431385 2.37653,-0.431385 1.96869,0 2.96479,0.800023 1.00395,0.792179 1.00395,2.345164 0,0.533349 -0.1098,1.043167 -0.10197,0.509819 -0.27452,1.011794 h -6.54136 q 0,0.04706 0,0.09412 0,0.03922 0,0.08628 0,0.917673 0.64315,1.435335 0.64316,0.517661 1.96869,0.517661 0.92551,0 1.74907,-0.313734 0.83139,-0.313734 1.44317,-0.698059 h 0.31374 l -0.52551,2.266731 q -0.82355,0.360794 -1.73338,0.541192 -0.90983,0.18824 -1.93731,0.18824 z m 20.64052,-7.05118 q 0,0.235301 -0.0314,0.509818 -0.0314,0.274518 -0.10196,0.572566 L 150.63299,80.0298 H 147.778 l 1.00395,-4.368751 q 0.10981,-0.486288 0.17256,-0.831396 0.0627,-0.345108 0.0627,-0.643155 0,-0.509819 -0.25883,-0.745119 -0.25883,-0.235301 -0.94904,-0.235301 -0.33727,0 -0.7765,0.149024 -0.43922,0.14118 -0.98826,0.431384 l -1.43533,6.243314 h -2.8393 l 2.03143,-8.808092 h 2.8393 l -0.22746,0.972576 q 0.87061,-0.572565 1.58436,-0.894143 0.72159,-0.321577 1.58436,-0.321577 1.18434,0 1.84319,0.572565 0.65884,0.572565 0.65884,1.662792 z m 16.07568,0 q 0,0.235301 -0.0314,0.509818 -0.0314,0.274518 -0.10196,0.572566 l -1.31768,5.733495 h -2.85499 l 1.00395,-4.368751 q 0.10981,-0.486288 0.17256,-0.831396 0.0627,-0.345108 0.0627,-0.643155 0,-0.509819 -0.25883,-0.745119 -0.25883,-0.235301 -0.94904,-0.235301 -0.33727,0 -0.7765,0.149024 -0.43922,0.14118 -0.98826,0.431384 l -1.43533,6.243314 h -2.8393 l 2.03143,-8.808092 h 2.8393 l -0.22746,0.972576 q 0.87061,-0.572565 1.58436,-0.894143 0.72159,-0.321577 1.58436,-0.321577 1.18434,0 1.84319,0.572565 0.65884,0.572565 0.65884,1.662792 z m 10.64023,-1.992213 -2.03927,8.808092 h -2.8393 l 2.03927,-8.808092 z m 0.86277,-3.396175 -0.49413,2.141237 h -2.99617 l 0.49414,-2.141237 z M 193.49519,80.0298 h -2.97263 l -1.73338,-3.890306 -1.2471,1.113757 -0.651,2.776549 h -2.83929 l 2.81576,-12.204267 h 2.8393 l -1.67848,7.286481 3.93737,-3.890306 h 3.25499 l -4.07855,3.835403 z"
             id="text24"
             transform="scale(0.62901581,1.5897852)"
             aria-label="Dziennik" />
        </g>
      </g>
    </g>
  </g>
</svg>
